<svg width="45" height="45" viewBox="0 0 45 45" fill="none" xmlns="http://www.w3.org/2000/svg">
<rect width="45" height="45" rx="22.5" fill="#E6E7EB"/>
<path fill-rule="evenodd" clip-rule="evenodd" d="M23.0043 12C20.0703 12 17.6918 14.3886 17.6918 17.3352C17.6918 20.2817 20.0703 22.6703 23.0043 22.6703C25.9383 22.6703 28.3168 20.2817 28.3168 17.3352C28.3168 14.3886 25.9383 12 23.0043 12ZM23.0043 13.4477C25.1422 13.4477 26.8753 15.1882 26.8753 17.3352C26.8753 19.4822 25.1422 21.2227 23.0043 21.2227C20.8664 21.2227 19.1333 19.4822 19.1333 17.3352C19.1333 15.1882 20.8664 13.4477 23.0043 13.4477ZM20.83 24.8209C20.0523 24.8749 19.2662 24.9859 18.4908 25.1521C16.9942 25.4604 15.7969 26.0763 15.2872 27.0999C15.095 27.5002 14.9984 27.9288 15 28.3627C14.9994 28.7935 15.0953 29.2227 15.2806 29.6153C15.7699 30.6271 16.8278 31.1997 18.2562 31.5171L18.5121 31.5705C19.2665 31.7407 20.0528 31.8553 20.8445 31.909C20.9119 31.9288 21.0726 31.9472 21.248 31.9561L21.3922 31.9615C21.4664 31.9633 21.5506 31.9637 21.676 31.9637C22.8138 32.0263 23.9934 32.0081 25.1675 31.9081C25.7932 31.8653 26.4231 31.7835 27.0477 31.6636L27.5151 31.5666C29.0576 31.2623 30.2126 30.6836 30.7186 29.6164C31.0937 28.8241 31.0937 27.9047 30.7188 27.1127C30.214 26.0483 29.0737 25.4744 27.5034 25.1509C26.8873 25.0194 26.2612 24.922 25.6307 24.8599L25.1697 24.8209C23.7259 24.6935 22.2738 24.6935 20.83 24.8209ZM25.0436 26.263L25.0562 26.264C25.7799 26.3149 26.4991 26.4165 27.2087 26.568C28.3751 26.8083 29.1667 27.2067 29.4171 27.7348C29.6057 28.133 29.6057 28.5958 29.4169 28.9944C29.1829 29.4879 28.472 29.8691 27.4445 30.1021L27.2195 30.1498C26.496 30.3112 25.7791 30.4152 25.0576 30.4647C23.9379 30.5599 22.8249 30.5771 21.7148 30.5171L21.3212 30.5103C21.2119 30.5048 21.1198 30.4942 21.0345 30.4771C20.3587 30.4261 19.7507 30.3454 19.1603 30.2283L18.8078 30.1537C17.6377 29.9244 16.8391 29.5243 16.5802 28.989C16.4896 28.797 16.4412 28.5803 16.4415 28.3609C16.4407 28.1428 16.4885 27.931 16.5812 27.7379C16.8329 27.2324 17.6792 26.7971 18.7861 26.569C19.5007 26.4159 20.2196 26.3144 20.9429 26.264C22.316 26.143 23.6837 26.143 25.0436 26.263Z" fill="#A1A4B1"/>
</svg>
