<svg width="58" height="24" viewBox="0 0 58 24" fill="none" xmlns="http://www.w3.org/2000/svg">
<path d="M9.10231 16V7.6H7.30231V13L3.22231 7.6H1.49431V16H3.30631V10.612L7.37431 16H9.10231ZM13.6873 9.484C11.7193 9.484 10.3633 10.804 10.3633 12.796C10.3633 14.752 11.6713 16.072 13.7353 16.072C14.8993 16.072 15.8473 15.652 16.4953 14.932L15.5233 13.948C15.0793 14.392 14.5033 14.632 13.8913 14.632C13.0633 14.632 12.4393 14.152 12.2233 13.336H16.8553C17.0113 10.984 15.9553 9.484 13.6873 9.484ZM12.1873 12.244C12.3313 11.392 12.8833 10.84 13.6993 10.84C14.5513 10.84 15.1033 11.392 15.1273 12.244H12.1873ZM20.3642 11.5L19.1762 9.544H17.0642L19.1402 12.7L16.9082 16H18.9482L20.3642 13.888L21.6602 16H23.7842L21.5882 12.688L23.6402 9.544H21.6242L20.3642 11.5ZM28.3906 14.284C28.0546 14.44 27.7666 14.524 27.5266 14.524C27.1306 14.536 26.9026 14.32 26.9026 13.78V11.116H28.6546V9.832H26.9026V8.056H25.0666V9.832H24.1666V11.104H25.0666V14.092C25.0666 15.424 25.9426 16.084 27.0946 16.084C27.6946 16.084 28.2946 15.916 28.7746 15.64L28.3906 14.284Z" fill="#182722"/>
<path fill-rule="evenodd" clip-rule="evenodd" d="M46 21.2498C51.108 21.2498 55.25 17.1088 55.25 11.9998C55.25 6.89176 51.108 2.74976 46 2.74976C40.892 2.74976 36.75 6.89176 36.75 11.9998C36.75 17.1088 40.892 21.2498 46 21.2498Z" stroke="#092231" stroke-width="1.5" stroke-linecap="round" stroke-linejoin="round"/>
<path d="M44.5577 15.4709L48.0437 11.9999L44.5577 8.52895" stroke="#092231" stroke-width="1.5" stroke-linecap="round" stroke-linejoin="round"/>
</svg>
