<svg width="126" height="40" viewBox="0 0 126 40" fill="none" xmlns="http://www.w3.org/2000/svg">
<rect x="1" y="1" width="124" height="38" rx="19" stroke="#092231" stroke-width="2"/>
<path d="M61.2766 14.8H58.7486V21.312C58.7486 22.928 57.7566 23.904 56.2526 23.904C54.7486 23.904 53.6926 22.928 53.6926 21.312V14.8H51.1646V21.312C51.1646 24.272 53.1486 26.112 56.2526 26.112C59.3406 26.112 61.2766 24.272 61.2766 21.312V14.8ZM68.7449 17.312C67.5769 17.312 66.6329 17.792 66.0249 18.656V17.392H63.5609V29.104H66.0249V24.752C66.6489 25.616 67.5929 26.096 68.7929 26.096C71.2089 26.096 72.7929 24.352 72.7929 21.744C72.7929 19.088 71.1609 17.312 68.7449 17.312ZM68.1689 24.048C66.9049 24.048 66.0249 23.088 66.0249 21.664C66.0249 20.272 66.9049 19.296 68.1689 19.296C69.4329 19.296 70.2969 20.288 70.2969 21.664C70.2969 23.072 69.4329 24.048 68.1689 24.048ZM76.9624 26V14.128H74.4984V26H76.9624ZM83.322 17.312C80.554 17.312 78.698 19.056 78.698 21.696C78.698 24.32 80.554 26.096 83.322 26.096C86.074 26.096 87.93 24.32 87.93 21.696C87.93 19.056 86.074 17.312 83.322 17.312ZM83.322 19.36C84.586 19.36 85.466 20.32 85.466 21.728C85.466 23.136 84.586 24.096 83.322 24.096C82.042 24.096 81.178 23.136 81.178 21.728C81.178 20.32 82.042 19.36 83.322 19.36ZM94.551 26H96.967L96.951 20.384C96.935 18.448 95.607 17.296 93.303 17.296C91.799 17.296 90.695 17.648 89.415 18.288L90.183 19.984C91.079 19.488 91.975 19.232 92.743 19.232C93.927 19.232 94.535 19.76 94.535 20.672V20.832H92.167C90.055 20.848 88.887 21.808 88.887 23.424C88.887 24.992 90.007 26.112 91.847 26.112C93.047 26.112 93.975 25.712 94.551 24.992V26ZM92.535 24.352C91.703 24.352 91.191 23.92 91.191 23.264C91.191 22.576 91.655 22.288 92.599 22.288H94.535V23.056C94.391 23.792 93.575 24.352 92.535 24.352ZM107.586 14.128H105.138V18.656C104.514 17.776 103.57 17.296 102.354 17.296C99.9543 17.296 98.3543 19.04 98.3543 21.664C98.3543 24.32 99.9703 26.096 102.418 26.096C103.602 26.096 104.53 25.616 105.138 24.736V26H107.586V14.128ZM102.994 24.112C101.698 24.112 100.834 23.136 100.818 21.728C100.834 20.336 101.714 19.344 102.994 19.344C104.258 19.344 105.138 20.32 105.138 21.728C105.138 23.136 104.258 24.112 102.994 24.112Z" fill="#092231"/>
<path d="M23.3895 16.984H22.4565C20.4215 16.984 18.7715 18.634 18.7715 20.669V25.544C18.7715 27.578 20.4215 29.228 22.4565 29.228H33.5865C35.6215 29.228 37.2715 27.578 37.2715 25.544V20.659C37.2715 18.63 35.6265 16.984 33.5975 16.984H32.6545" stroke="#092231" stroke-width="1.5" stroke-linecap="round" stroke-linejoin="round"/>
<path d="M28.0214 10.1906V22.2316" stroke="#092231" stroke-width="1.5" stroke-linecap="round" stroke-linejoin="round"/>
<path d="M25.1063 13.1188L28.0213 10.1908L30.9373 13.1188" stroke="#092231" stroke-width="1.5" stroke-linecap="round" stroke-linejoin="round"/>
</svg>
