<svg width="81" height="24" viewBox="0 0 81 24" fill="none" xmlns="http://www.w3.org/2000/svg">
<path d="M29.924 7.6V16H31.82V13.6H33.488C35.624 13.6 36.848 12.472 36.848 10.516C36.848 8.656 35.624 7.6 33.488 7.6H29.924ZM31.82 9.172H33.392C34.448 9.172 35.048 9.64 35.048 10.576C35.048 11.536 34.448 12.016 33.392 12.016H31.82V9.172ZM39.8688 9.544H38.0208V16H39.8688V12.892C39.8688 11.8 40.6848 11.092 42.0048 11.212V9.472C41.0448 9.484 40.3128 9.916 39.8688 10.708V9.544ZM45.785 9.484C43.817 9.484 42.461 10.804 42.461 12.796C42.461 14.752 43.769 16.072 45.833 16.072C46.997 16.072 47.945 15.652 48.593 14.932L47.621 13.948C47.177 14.392 46.601 14.632 45.989 14.632C45.161 14.632 44.537 14.152 44.321 13.336H48.953C49.109 10.984 48.053 9.484 45.785 9.484ZM44.285 12.244C44.429 11.392 44.981 10.84 45.797 10.84C46.649 10.84 47.201 11.392 47.225 12.244H44.285ZM53.3822 16L55.8182 9.544H53.9822L52.4702 14.248L50.9462 9.544L49.0382 9.556L51.4862 16H53.3822ZM57.5542 6.676C56.9662 6.676 56.5582 7.108 56.5582 7.708C56.5582 8.308 56.9662 8.74 57.5542 8.74C58.1422 8.74 58.5502 8.308 58.5502 7.708C58.5502 7.108 58.1422 6.676 57.5542 6.676ZM58.4782 16V9.544H56.6302V16H58.4782ZM63.1673 9.484C61.0913 9.484 59.6993 10.792 59.6993 12.772C59.6993 14.74 61.0913 16.072 63.1673 16.072C65.2313 16.072 66.6233 14.74 66.6233 12.772C66.6233 10.792 65.2313 9.484 63.1673 9.484ZM63.1673 11.02C64.1153 11.02 64.7753 11.74 64.7753 12.796C64.7753 13.852 64.1153 14.572 63.1673 14.572C62.2073 14.572 61.5593 13.852 61.5593 12.796C61.5593 11.74 62.2073 11.02 63.1673 11.02ZM73.977 9.544H72.141V12.736C72.141 13.672 71.601 14.368 70.713 14.38C69.969 14.38 69.501 13.888 69.501 13.072V9.544H67.653V13.6C67.653 15.124 68.553 16.072 69.981 16.072C70.953 16.072 71.697 15.676 72.141 14.86V16H73.977V9.544ZM77.9509 9.46C76.5469 9.46 75.4069 10.144 75.4069 11.476C75.4069 13.744 78.7549 13.192 78.7549 14.224C78.7549 14.572 78.4069 14.728 77.9389 14.728C77.2309 14.728 76.3669 14.44 75.6949 13.924L75.0949 15.172C75.8269 15.76 76.8469 16.072 77.8909 16.072C79.3549 16.072 80.5189 15.376 80.5189 14.056C80.5309 11.776 77.1229 12.268 77.1229 11.296C77.1229 10.96 77.4349 10.816 77.8669 10.816C78.4069 10.816 79.1269 11.044 79.8349 11.44L80.4709 10.18C79.7509 9.724 78.8389 9.46 77.9509 9.46Z" fill="#182722"/>
<path fill-rule="evenodd" clip-rule="evenodd" d="M12 2.75024C6.892 2.75024 2.75 6.89124 2.75 12.0002C2.75 17.1082 6.892 21.2502 12 21.2502C17.108 21.2502 21.25 17.1082 21.25 12.0002C21.25 6.89124 17.108 2.75024 12 2.75024Z" stroke="#092231" stroke-width="1.5" stroke-linecap="round" stroke-linejoin="round"/>
<path d="M13.4423 8.52905L9.95632 12.0001L13.4423 15.4711" stroke="#092231" stroke-width="1.5" stroke-linecap="round" stroke-linejoin="round"/>
</svg>
