<svg width="126" height="40" viewBox="0 0 126 40" fill="none" xmlns="http://www.w3.org/2000/svg">
<path d="M63.4686 14.688C60.8766 14.688 59.1326 15.968 59.1326 18C59.1326 21.968 65.1006 20.736 65.1006 22.848C65.1006 23.536 64.4766 23.92 63.4366 23.92C62.2526 23.92 60.6206 23.264 59.4686 22.24L58.4606 24.304C59.7246 25.376 61.5646 26.08 63.4046 26.08C65.8846 26.08 67.7886 24.896 67.7886 22.704C67.8046 18.672 61.8366 19.824 61.8366 17.76C61.8366 17.152 62.4126 16.848 63.2606 16.848C64.1566 16.848 65.5646 17.296 66.7486 18L67.7246 15.904C66.6046 15.168 65.0366 14.688 63.4686 14.688ZM74.5041 26H76.9201L76.9041 20.384C76.8881 18.448 75.5601 17.296 73.2561 17.296C71.7521 17.296 70.6481 17.648 69.3681 18.288L70.1361 19.984C71.0321 19.488 71.9281 19.232 72.6961 19.232C73.8801 19.232 74.4881 19.76 74.4881 20.672V20.832H72.1201C70.0081 20.848 68.8401 21.808 68.8401 23.424C68.8401 24.992 69.9601 26.112 71.8001 26.112C73.0001 26.112 73.9281 25.712 74.5041 24.992V26ZM72.4881 24.352C71.6561 24.352 71.1441 23.92 71.1441 23.264C71.1441 22.576 71.6081 22.288 72.5521 22.288H74.4881V23.056C74.3441 23.792 73.5281 24.352 72.4881 24.352ZM83.4471 26L86.6951 17.392H84.2471L82.2311 23.664L80.1991 17.392L77.6551 17.408L80.9191 26H83.4471ZM91.1925 17.312C88.5685 17.312 86.7605 19.072 86.7605 21.728C86.7605 24.336 88.5045 26.096 91.2565 26.096C92.8085 26.096 94.0725 25.536 94.9365 24.576L93.6405 23.264C93.0485 23.856 92.2805 24.176 91.4645 24.176C90.3605 24.176 89.5285 23.536 89.2405 22.448H95.4165C95.6245 19.312 94.2165 17.312 91.1925 17.312ZM89.1925 20.992C89.3845 19.856 90.1205 19.12 91.2085 19.12C92.3445 19.12 93.0805 19.856 93.1125 20.992H89.1925Z" fill="#092231"/>
<path fill-rule="evenodd" clip-rule="evenodd" d="M40.6648 26.6316L34.7334 29.8811C34.2598 30.1272 33.6764 29.953 33.4153 29.4875V29.4875C33.3398 29.3433 33.2991 29.1834 33.2963 29.0206V14.6225C33.2963 11.8765 35.1728 10.7781 37.873 10.7781H44.2162C46.8341 10.7781 48.7929 11.8032 48.7929 14.4394V29.0206C48.7929 29.2804 48.6897 29.5295 48.506 29.7132C48.3224 29.8969 48.0733 30 47.8135 30C47.6478 29.9974 47.485 29.9567 47.3375 29.8811L41.3696 26.6316C41.1497 26.5128 40.8847 26.5128 40.6648 26.6316Z" stroke="#092231" stroke-width="1.5" stroke-linecap="round" stroke-linejoin="round"/>
<path d="M37.3696 17.3227H44.6648" stroke="#092231" stroke-width="1.5" stroke-linecap="round" stroke-linejoin="round"/>
<rect x="1" y="1" width="124" height="38" rx="19" stroke="#092231" stroke-width="2"/>
</svg>
