<svg width="90" height="36" viewBox="0 0 90 36" fill="none" xmlns="http://www.w3.org/2000/svg">
<rect width="90" height="36" rx="18" fill="#50D8BB"/>
<path d="M28.0191 21.93V13.5H25.6491V24H32.5191V21.93H28.0191ZM37.5255 15.855C34.9305 15.855 33.1905 17.49 33.1905 19.965C33.1905 22.425 34.9305 24.09 37.5255 24.09C40.1055 24.09 41.8455 22.425 41.8455 19.965C41.8455 17.49 40.1055 15.855 37.5255 15.855ZM37.5255 17.775C38.7105 17.775 39.5355 18.675 39.5355 19.995C39.5355 21.315 38.7105 22.215 37.5255 22.215C36.3255 22.215 35.5155 21.315 35.5155 19.995C35.5155 18.675 36.3255 17.775 37.5255 17.775ZM50.9327 15.93H48.6377V17.025C48.0827 16.275 47.2427 15.84 46.1477 15.855C44.0927 15.855 42.6827 17.4 42.6827 19.68C42.6827 22.02 44.1227 23.58 46.2077 23.58C47.2727 23.58 48.0977 23.16 48.6377 22.41V23.325C48.6377 24.42 47.7977 25.125 46.4777 25.125C45.5627 25.125 44.7077 24.84 43.9727 24.315L43.1177 25.935C44.0477 26.565 45.2627 27 46.6277 27C49.2077 27 50.9327 25.545 50.9327 23.25V15.93ZM46.7477 21.825C45.6077 21.825 44.8577 20.97 44.8427 19.74C44.8577 18.51 45.6227 17.64 46.7477 17.64C47.8727 17.64 48.6377 18.495 48.6377 19.74C48.6377 20.97 47.8727 21.825 46.7477 21.825ZM54.1957 12.345C53.4607 12.345 52.9507 12.885 52.9507 13.635C52.9507 14.385 53.4607 14.925 54.1957 14.925C54.9307 14.925 55.4407 14.385 55.4407 13.635C55.4407 12.885 54.9307 12.345 54.1957 12.345ZM55.3507 24V15.93H53.0407V24H55.3507ZM62.667 15.84C61.407 15.855 60.447 16.335 59.877 17.34V15.93H57.567V24H59.877V20.025C59.877 18.84 60.567 17.97 61.722 17.955C62.712 17.955 63.312 18.585 63.312 19.605V24H65.622V18.93C65.622 17.04 64.467 15.84 62.667 15.84Z" fill="white"/>
</svg>
