<svg width="90" height="36" viewBox="0 0 90 36" fill="none" xmlns="http://www.w3.org/2000/svg">
<rect width="90" height="36" rx="18" fill="#6C748A"/>
<path d="M31.7915 24H34.4765L32.2415 20.535C33.5165 19.935 34.2065 18.765 34.2065 17.145C34.2065 14.82 32.6465 13.5 29.9015 13.5H25.3415V24H27.7115V21H29.9015H30.1265L31.7915 24ZM27.7115 19.02V15.465H29.9015C31.2065 15.465 31.9565 16.05 31.9565 17.22C31.9565 18.42 31.2065 19.02 29.9015 19.02H27.7115ZM39.616 15.855C37.156 15.855 35.461 17.505 35.461 19.995C35.461 22.44 37.096 24.09 39.676 24.09C41.131 24.09 42.316 23.565 43.126 22.665L41.911 21.435C41.356 21.99 40.636 22.29 39.871 22.29C38.836 22.29 38.056 21.69 37.786 20.67H43.576C43.771 17.73 42.451 15.855 39.616 15.855ZM37.741 19.305C37.921 18.24 38.611 17.55 39.631 17.55C40.696 17.55 41.386 18.24 41.416 19.305H37.741ZM47.8312 15.825C46.0762 15.825 44.6512 16.68 44.6512 18.345C44.6512 21.18 48.8362 20.49 48.8362 21.78C48.8362 22.215 48.4012 22.41 47.8162 22.41C46.9312 22.41 45.8512 22.05 45.0112 21.405L44.2612 22.965C45.1762 23.7 46.4512 24.09 47.7562 24.09C49.5862 24.09 51.0412 23.22 51.0412 21.57C51.0562 18.72 46.7962 19.335 46.7962 18.12C46.7962 17.7 47.1862 17.52 47.7262 17.52C48.4012 17.52 49.3012 17.805 50.1862 18.3L50.9812 16.725C50.0812 16.155 48.9412 15.825 47.8312 15.825ZM56.0516 15.855C53.5916 15.855 51.8966 17.505 51.8966 19.995C51.8966 22.44 53.5316 24.09 56.1116 24.09C57.5666 24.09 58.7516 23.565 59.5616 22.665L58.3466 21.435C57.7916 21.99 57.0716 22.29 56.3066 22.29C55.2716 22.29 54.4916 21.69 54.2216 20.67H60.0116C60.2066 17.73 58.8866 15.855 56.0516 15.855ZM54.1766 19.305C54.3566 18.24 55.0466 17.55 56.0666 17.55C57.1316 17.55 57.8216 18.24 57.8516 19.305H54.1766ZM66.0518 21.855C65.6318 22.05 65.2718 22.155 64.9718 22.155C64.4768 22.17 64.1918 21.9 64.1918 21.225V17.895H66.3818V16.29H64.1918V14.07H61.8968V16.29H60.7718V17.88H61.8968V21.615C61.8968 23.28 62.9918 24.105 64.4318 24.105C65.1818 24.105 65.9318 23.895 66.5318 23.55L66.0518 21.855Z" fill="white"/>
</svg>
