<svg width="24" height="24" viewBox="0 0 24 24" fill="none" xmlns="http://www.w3.org/2000/svg">
<path fill-rule="evenodd" clip-rule="evenodd" d="M12.5732 4.49976H6.30418C3.73908 4.49976 2.00018 6.21885 2.00018 8.68776V15.7028C2.00018 18.1717 3.73908 19.8908 6.30418 19.8908H12.5732C14.9913 19.8908 16.681 18.3553 16.8612 16.1066L19.5081 17.1885L19.6407 17.2369C20.7925 17.6087 21.9999 16.7525 21.9999 15.5153V8.87626L21.9946 8.73524C21.9036 7.52857 20.6539 6.73449 19.5085 7.20184L16.8613 8.28386C16.6816 6.03363 14.9953 4.49976 12.5732 4.49976ZM15.3772 9.36729C15.3765 9.38538 15.3765 9.40355 15.3772 9.42176V14.9688C15.3765 14.987 15.3765 15.0051 15.3772 15.0232V15.7028C15.3772 17.3366 14.3094 18.3908 12.5732 18.3908H6.30418C4.56368 18.3908 3.50018 17.3394 3.50018 15.7028V8.68776C3.50018 7.05114 4.56368 5.99976 6.30418 5.99976H12.5732C14.3131 5.99976 15.3772 7.05153 15.3772 8.68776V9.36729ZM16.8772 14.4927V9.89781L20.0756 8.5905L20.1435 8.57135C20.3245 8.54197 20.4999 8.68146 20.4999 8.87626V15.5153L20.492 15.5854C20.4509 15.7642 20.2558 15.8735 20.0752 15.7998L16.8772 14.4927Z" fill="#092231"/>
</svg>
