<svg width="26" height="26" viewBox="0 0 26 26" fill="none" xmlns="http://www.w3.org/2000/svg">
<rect x="0.5" y="0.5" width="25" height="25" rx="12.5" stroke="#CCCCCC"/>
<path d="M14.656 11.3359C14.6932 11.3731 14.7118 11.4159 14.7118 11.4643C14.7118 11.5126 14.6932 11.5554 14.656 11.5926L12.4629 13.7857L14.656 15.9788C14.6932 16.016 14.7118 16.0588 14.7118 16.1071C14.7118 16.1555 14.6932 16.1983 14.656 16.2355L14.377 16.5145C14.3398 16.5517 14.297 16.5703 14.2486 16.5703C14.2002 16.5703 14.1575 16.5517 14.1203 16.5145L11.5198 13.9141C11.4826 13.8769 11.464 13.8341 11.464 13.7857C11.464 13.7374 11.4826 13.6946 11.5198 13.6574L14.1203 11.0569C14.1575 11.0197 14.2002 11.0011 14.2486 11.0011C14.297 11.0011 14.3398 11.0197 14.377 11.0569L14.656 11.3359Z" fill="#CCCCCC"/>
</svg>
