<svg width="26" height="26" viewBox="0 0 26 26" fill="none" xmlns="http://www.w3.org/2000/svg">
<rect x="0.5" y="0.5" width="25" height="25" rx="12.5" stroke="#CCCCCC"/>
<path d="M14.4774 13.6574C14.5146 13.6946 14.5332 13.7374 14.5332 13.7857C14.5332 13.8341 14.5146 13.8769 14.4774 13.9141L11.877 16.5145C11.8398 16.5517 11.797 16.5703 11.7486 16.5703C11.7002 16.5703 11.6575 16.5517 11.6203 16.5145L11.3412 16.2355C11.304 16.1983 11.2854 16.1555 11.2854 16.1071C11.2854 16.0588 11.304 16.016 11.3412 15.9788L13.5343 13.7857L11.3412 11.5926C11.304 11.5554 11.2854 11.5126 11.2854 11.4643C11.2854 11.4159 11.304 11.3731 11.3412 11.3359L11.6203 11.0569C11.6575 11.0197 11.7002 11.0011 11.7486 11.0011C11.797 11.0011 11.8398 11.0197 11.877 11.0569L14.4774 13.6574Z" fill="#CCCCCC"/>
</svg>
