<svg width="24" height="24" viewBox="0 0 24 24" fill="none" xmlns="http://www.w3.org/2000/svg">
<path fill-rule="evenodd" clip-rule="evenodd" d="M8.13769 22C7.72569 22 7.33469 21.968 6.96669 21.905L6.74869 21.864C4.37769 21.371 2.99969 19.555 2.99969 16.791V7.209C2.99969 6.875 3.01969 6.555 3.05969 6.249C3.40869 3.564 5.25369 2 8.13769 2H15.8627C19.0587 2 20.9697 3.92 20.9997 7.132V7.209V16.791C20.9997 20.048 19.0837 22 15.8627 22H8.13769ZM8.13769 3.457C5.68169 3.457 4.43669 4.72 4.43669 7.209V16.791C4.43669 19.28 5.68169 20.543 8.13769 20.543H15.8537C18.3087 20.543 19.5457 19.28 19.5457 16.791V7.209C19.5457 4.72 18.3087 3.457 15.8537 3.457H8.13769ZM16.3057 16.234C16.3057 15.834 15.9867 15.51 15.5927 15.51H8.38169C7.9877 15.51 7.6677 15.834 7.6677 16.234C7.6677 16.634 7.9877 16.958 8.38169 16.958H15.5927C15.9867 16.958 16.3057 16.634 16.3057 16.234ZM15.5927 11.271C15.8677 11.241 16.1367 11.373 16.2837 11.61C16.4307 11.849 16.4307 12.151 16.2837 12.39C16.1367 12.627 15.8677 12.759 15.5927 12.729H8.38169C8.01569 12.687 7.73869 12.374 7.73869 12C7.73869 11.626 8.01569 11.312 8.38169 11.271H15.5927ZM11.7767 7.771C11.7767 7.397 11.4997 7.083 11.1337 7.042H8.3907C8.02369 7.083 7.7467 7.397 7.7467 7.771C7.7467 8.144 8.02369 8.458 8.3907 8.499H11.1337C11.4997 8.458 11.7767 8.144 11.7767 7.771Z" fill="#092231"/>
</svg>
