<svg width="24" height="24" viewBox="0 0 24 24" fill="none" xmlns="http://www.w3.org/2000/svg">
<path d="M16.0201 10.9133C17.8411 10.9133 19.3171 9.43734 19.3171 7.61634C19.3171 5.79634 17.8411 4.31934 16.0201 4.31934" stroke="#092231" stroke-width="1.5" stroke-linecap="round" stroke-linejoin="round"/>
<path d="M17.5362 14.4963C18.0802 14.5333 18.6202 14.6113 19.1532 14.7293C19.8922 14.8763 20.7822 15.1793 21.0982 15.8423C21.3002 16.2673 21.3002 16.7623 21.0982 17.1873C20.7832 17.8503 19.8922 18.1533 19.1532 18.3053" stroke="#092231" stroke-width="1.5" stroke-linecap="round" stroke-linejoin="round"/>
<path fill-rule="evenodd" clip-rule="evenodd" d="M9.5914 15.2063C13.2814 15.2063 16.4334 15.7653 16.4334 17.9983C16.4334 20.2323 13.3014 20.8103 9.5914 20.8103C5.9014 20.8103 2.7504 20.2523 2.7504 18.0183C2.7504 15.7843 5.8814 15.2063 9.5914 15.2063Z" stroke="#092231" stroke-width="1.5" stroke-linecap="round" stroke-linejoin="round"/>
<path fill-rule="evenodd" clip-rule="evenodd" d="M9.5914 12.0188C7.1574 12.0188 5.2074 10.0678 5.2074 7.63376C5.2074 5.20076 7.1574 3.24976 9.5914 3.24976C12.0254 3.24976 13.9764 5.20076 13.9764 7.63376C13.9764 10.0678 12.0254 12.0188 9.5914 12.0188Z" stroke="#092231" stroke-width="1.5" stroke-linecap="round" stroke-linejoin="round"/>
</svg>
