<svg width="170" height="87" viewBox="0 0 170 87" fill="none" xmlns="http://www.w3.org/2000/svg">
<path d="M17.7116 42.5509H7.69612L11.9659 10.0709H2.74108L3.84806 1.42358H32.3132L31.2062 10.0709H21.9814L17.7116 42.5509Z" stroke="#38C28D" stroke-width="2" stroke-miterlimit="10"/>
<path d="M68.9488 1.42358L63.5721 42.5509H53.5566L55.7178 25.889H45.7023L43.5411 42.5509H33.5256L38.9023 1.42358H48.9178L46.862 17.2418H56.8775L58.9333 1.42358H68.9488Z" stroke="#38C28D" stroke-width="2" stroke-miterlimit="10"/>
<path d="M103.212 1.42358L102.105 10.0709H86.2915L85.3426 17.2418H98.5209L97.3612 25.889H84.1829L83.1287 33.9036H98.9426L97.8357 42.5509H72.0062L77.383 1.42358H103.212Z" stroke="#38C28D" stroke-width="2" stroke-miterlimit="10"/>
<path d="M1.95039 65.2236L2.21395 63.2199C4.11163 48.9835 9.80465 42.8672 20.8744 42.8672C30.9426 42.8672 36.0031 47.4545 34.738 57.3672L34.4744 59.4236H24.4589C25.0915 54.6781 24.5116 51.5145 20.5581 51.5145H19.9783C14.9705 51.5145 13.3364 56.1017 12.3876 63.2199L12.124 65.2236C11.1752 72.3945 12.124 76.8236 17.1318 76.8236H17.7116C19.2403 76.8236 21.1907 76.349 22.245 75.769L22.9302 70.4963H17.9752L19.1349 61.849H34.1054L31.6279 80.6199C28.4651 83.2035 24.4062 85.4708 16.6046 85.4708C5.53488 85.4708 0.0527125 79.4599 1.95039 65.2236Z" stroke="#38C28D" stroke-width="2" stroke-miterlimit="10"/>
<path d="M49.3395 84.7328H39.324L44.7008 43.6055H58.8806C65.8387 43.6055 73.5349 45.0818 72.0062 56.4709L71.8481 57.6309C70.9519 64.3273 67.7891 67.6491 63.9411 69.2309L68.3163 84.7328H57.5101L53.9783 70.6018H51.1845L49.3395 84.7328ZM56.8775 61.9546C58.8279 61.9546 61.4108 61.1636 61.7798 57.3673L61.8326 56.7873C62.2015 52.8855 60.1457 52.2527 58.1953 52.2527H53.6093L52.2915 61.9546H56.8775Z" stroke="#38C28D" stroke-width="2" stroke-miterlimit="10"/>
<path d="M86.2388 84.7328H76.2233L81.6 43.6055H91.6155L86.2388 84.7328Z" stroke="#38C28D" stroke-width="2" stroke-miterlimit="10"/>
<path d="M126.035 84.7328H115.492L107.111 62.06L106.32 69.9691L104.422 84.7328H94.9338L100.311 43.6055H110.853L119.235 66.2782L119.973 58.3691L121.923 43.6055H131.411L126.035 84.7328Z" stroke="#38C28D" stroke-width="2" stroke-miterlimit="10"/>
<path d="M167.942 65.1182C166.044 79.3546 160.825 84.7328 147.911 84.7328H134.469L139.845 43.6055H152.76C165.675 43.6055 170.103 48.8782 168.205 63.1146L167.942 65.1182ZM148.49 76.0855C155.343 76.0855 156.819 72.2364 157.768 65.1182L158.031 63.1146C158.98 55.9964 157.979 52.2527 151.126 52.2527H148.754L145.591 76.0855H148.49Z" stroke="#38C28D" stroke-width="2" stroke-miterlimit="10"/>
</svg>
