<svg width="100" height="61" viewBox="0 0 79 40" fill="none" xmlns="http://www.w3.org/2000/svg">
<g clip-path="url(#clip0_337_8410)">
<path d="M8.2307 19.5636H3.57644L5.56062 4.6303H1.2738L1.78822 0.654541H15.0161L14.5017 4.6303H10.2149L8.2307 19.5636Z" stroke="#38C28D" stroke-width="2" stroke-miterlimit="10"/>
<path d="M32.0409 0.654541L29.5423 19.5636H24.8881L25.8924 11.903H21.2381L20.2338 19.5636H15.5795L18.0781 0.654541H22.7324L21.777 7.92727H26.4313L27.3867 0.654541H32.0409Z" stroke="#38C28D" stroke-width="2" stroke-miterlimit="10"/>
<path d="M47.9634 0.654541L47.449 4.6303H40.1002L39.6592 7.92727H45.7833L45.2444 11.903H39.1203L38.6304 15.5879H45.9792L45.4648 19.5636H33.4617L35.9603 0.654541H47.9634Z" stroke="#38C28D" stroke-width="2" stroke-miterlimit="10"/>
<path d="M0.906383 29.9878L1.02886 29.0666C1.91072 22.5211 4.55631 19.709 9.70049 19.709C14.3793 19.709 16.7309 21.8181 16.143 26.3756L16.0205 27.3211H11.3662C11.6602 25.1393 11.3907 23.6847 9.55352 23.6847H9.28406C6.95693 23.6847 6.19755 25.7938 5.75662 29.0666L5.63414 29.9878C5.19321 33.2847 5.63414 35.3211 7.96127 35.3211H8.23072C8.94111 35.3211 9.84747 35.1029 10.3374 34.8363L10.6558 32.412H8.35321L8.89212 28.4363H15.849L14.6977 37.0666C13.2279 38.2544 11.3417 39.2969 7.71631 39.2969C2.57212 39.2969 0.0245226 36.5332 0.906383 29.9878Z" stroke="#38C28D" stroke-width="2" stroke-miterlimit="10"/>
<path d="M22.9284 38.9577H18.2741L20.7727 20.0486H27.3622C30.5957 20.0486 34.1721 20.7274 33.4617 25.9637L33.3882 26.4971C32.9718 29.5759 31.502 31.1031 29.7138 31.8304L31.747 38.9577H26.7253L25.084 32.4607H23.7857L22.9284 38.9577ZM26.4313 28.4849C27.3377 28.4849 28.538 28.1213 28.7095 26.3759L28.734 26.1092C28.9054 24.3153 27.9501 24.0243 27.0437 24.0243H24.9126L24.3002 28.4849H26.4313Z" stroke="#38C28D" stroke-width="2" stroke-miterlimit="10"/>
<path d="M40.0756 38.9577H35.4214L37.92 20.0486H42.5743L40.0756 38.9577Z" stroke="#38C28D" stroke-width="2" stroke-miterlimit="10"/>
<path d="M58.569 38.9577H53.6698L49.7749 28.5334L49.4074 32.1698L48.5256 38.9577H44.1163L46.6149 20.0486H51.5141L55.409 30.4728L55.7519 26.8365L56.6583 20.0486H61.0676L58.569 38.9577Z" stroke="#38C28D" stroke-width="2" stroke-miterlimit="10"/>
<path d="M78.0435 29.9395C77.1616 36.4849 74.7365 38.9577 68.7349 38.9577H62.4884L64.987 20.0486H70.9886C76.9901 20.0486 79.0478 22.4728 78.1659 29.0183L78.0435 29.9395ZM69.0044 34.9819C72.1889 34.9819 72.8748 33.2122 73.3157 29.9395L73.4382 29.0183C73.8791 25.7456 73.4137 24.0243 70.2292 24.0243H69.1269L67.6571 34.9819H69.0044Z" stroke="#38C28D" stroke-width="2" stroke-miterlimit="10"/>
</g>
<defs>
<clipPath id="clip0_337_8410">
<rect width="79" height="40" fill="white"/>
</clipPath>
</defs>
</svg>
